<?xml version="1.0" encoding="UTF-8"?>
<svg id="Layer_1" xmlns="http://www.w3.org/2000/svg" xmlns:xlink="http://www.w3.org/1999/xlink" version="1.1" viewBox="0 0 1200 630">
  <!-- Generator: Adobe Illustrator 30.1.0, SVG Export Plug-In . SVG Version: 2.1.1 Build 136)  -->
  <defs>
    <style>
      .st0, .st1, .st2 {
        fill: none;
      }

      .st3 {
        fill: url(#grid);
      }

      .st4 {
        fill: #5c750a;
      }

      .st5 {
        fill: #21adf1;
      }

      .st6 {
        fill: #d0d0d0;
      }

      .st7 {
        fill: #e5e7eb;
        font-size: 32px;
      }

      .st7, .st8 {
        font-family: ArialMT, Arial;
      }

      .st7, .st8, .st9, .st10, .st1, .st11, .st12, .st2 {
        isolation: isolate;
      }

      .st8 {
        fill: #6b7280;
        font-size: 20px;
      }

      .st13 {
        fill: url(#linear-gradient);
      }

      .st14 {
        fill: #9ca3af;
      }

      .st9 {
        font-family: Arial-BoldMT, Arial;
        font-size: 72px;
        font-weight: 700;
      }

      .st9, .st11, .st12 {
        fill: #fff;
      }

      .st15 {
        fill: #3b82f6;
      }

      .st16 {
        fill: #ccc;
      }

      .st17 {
        fill: #83bf4f;
      }

      .st1 {
        opacity: .3;
        stroke: #374151;
      }

      .st11 {
        opacity: .8;
      }

      .st11, .st12 {
        fill-opacity: .2;
      }

      .st12, .st2 {
        opacity: .9;
      }

      .st18 {
        fill: #f55;
      }

      .st19 {
        fill: #666;
      }

      .st20 {
        fill: #fdf516;
      }

      .st21 {
        fill: #29abe2;
      }

      .st22 {
        fill: #ffce31;
      }

      .st23 {
        fill: #22c55e;
      }

      .st24 {
        fill: #106995;
      }

      .st25 {
        fill: #fb4f00;
      }

      .st26 {
        fill: #94989b;
      }

      .st27 {
        fill: #fc9100;
      }

      .st2 {
        display: none;
        stroke: #fff;
        stroke-miterlimit: 10;
      }

      .st28 {
        fill: #ef4444;
      }

      .st29 {
        fill: #9aca0a;
      }

      .st30 {
        fill: #9156b7;
      }

      .st31 {
        fill: #947151;
        fill-rule: evenodd;
      }

      .st32 {
        fill: #f6c799;
      }

      .st33 {
        fill: #333;
      }

      .st34 {
        fill: #2caece;
      }
    </style>
    <linearGradient id="linear-gradient" x1="-717.4" y1=".7" x2="-716.4" y2="1.7" gradientTransform="translate(860882 -448) scale(1200 630)" gradientUnits="userSpaceOnUse">
      <stop offset="0" stop-color="#1f2937"/>
      <stop offset=".5" stop-color="#111827"/>
      <stop offset="1" stop-color="#0f172a"/>
    </linearGradient>
    <pattern id="grid" x="0" y="0" width="40" height="40" patternTransform="translate(78 17012)" patternUnits="userSpaceOnUse" viewBox="0 0 40 40">
      <g>
        <rect class="st0" width="40" height="40"/>
        <g>
          <rect class="st0" width="40" height="40"/>
          <path class="st1" d="M40,0H0v40"/>
        </g>
      </g>
    </pattern>
  </defs>
  <rect class="st13" width="1200" height="630"/>
  <rect class="st3" width="1200" height="630"/>
  <g class="st10">
    <text class="st9" transform="translate(80 180)"><tspan x="0" y="0">Pixel Visualizer</tspan></text>
  </g>
  <g class="st10">
    <text class="st7" transform="translate(80 240)"><tspan x="0" y="0">Explore your images in 3D color space</tspan></text>
  </g>
  <g class="st10">
    <g>
      <path class="st32" d="M100.4,297.7c-1,.9-2.7.9-3.8,0-1-.9-1-1.7,0-2.6s2.7-.9,3.8,0c1,.9,1,1.7,0,2.6ZM98.6,288.4c3.3-5.7-3.5-9.3-12.1-5.4-5.3,2.4-9,9.9-1.6,16.4,5.2,4.6,18.4,2,18.4-3.3s-8.1-1.8-4.7-7.7Z"/>
      <path class="st34" d="M92.4,296.5c-1.1-.9-3-.9-4.1,0s-1.1,2.3,0,3.2c1.1.9,3,.9,4.1,0s1.1-2.3,0-3.2Z"/>
      <path class="st20" d="M87.4,292.2c-1.3-.6-3-.2-3.9.9s-.6,2.4.7,3c1.3.6,3,.2,3.9-.9s.6-2.4-.7-3Z"/>
      <path class="st18" d="M86.4,287.3c-1.1-.6-2.7-.3-3.5.6s-.6,2.2.5,2.8c1.1.6,2.7.3,3.5-.6s.6-2.2-.5-2.8Z"/>
      <path class="st17" d="M90.6,283.6c-1.1-.6-2.6-.4-3.4.5s-.7,2.1.4,2.7,2.6.4,3.4-.5.7-2.1-.4-2.7Z"/>
      <path class="st30" d="M96.8,283.2c-.8-.7-2.2-.8-3.2-.4-.9.5-1,1.4-.2,2.1s2.2.8,3.2.4c.9-.5,1-1.4.2-2.1Z"/>
      <path class="st31" d="M95,295.4c-.7.8-4.3,1.5-4.3,1.5,0,0,1.4-1.3,2.1-3.5.3-1,1.8-1,2.4-.5s.6,1.6,0,2.4h0Z"/>
      <path class="st19" d="M102,284.2c.4,0,1.1.6,1.1.9,0,1.6-6.6,7.4-6.6,7.4l-1.1-.9s5-7.3,6.6-7.4Z"/>
      <polygon class="st16" points="94.4 292.7 95.5 293.6 96.5 292.5 95.4 291.6 94.4 292.7"/>
    </g>
    <path class="st14" d="M123.8,282.8h2.3v9.9c0,1.7-.2,3.1-.6,4.1s-1.1,1.8-2.1,2.5-2.4,1-4,1-2.9-.3-3.9-.8-1.8-1.4-2.2-2.4-.7-2.5-.7-4.3v-9.9h2.3v9.9c0,1.5,0,2.6.4,3.3s.8,1.3,1.4,1.6,1.5.6,2.5.6c1.7,0,2.9-.4,3.6-1.1s1.1-2.2,1.1-4.4v-9.9h-.1Z"/>
    <path class="st14" d="M129.6,304.8v-17.2h1.9v1.6c.5-.6,1-1.1,1.5-1.4s1.3-.5,2.1-.5,2,.3,2.8.8,1.4,1.3,1.8,2.3.6,2.1.6,3.3-.2,2.4-.7,3.4-1.1,1.8-2,2.3-1.8.8-2.7.8-1.3-.1-1.9-.4-1-.7-1.4-1.1v6.1h-2.1,0ZM131.5,293.8c0,1.6.3,2.8,1,3.6s1.4,1.1,2.4,1.1,1.7-.4,2.4-1.2,1-2,1-3.7-.3-2.8-1-3.6-1.4-1.2-2.3-1.2-1.7.4-2.4,1.3-1,2.1-1,3.7h0Z"/>
    <path class="st14" d="M142.9,300v-17.2h2.1v17.2h-2.1Z"/>
    <path class="st14" d="M147.5,293.8c0-2.3.6-4,1.9-5.1,1.1-.9,2.4-1.4,3.9-1.4s3.1.6,4.2,1.7,1.6,2.7,1.6,4.6-.2,2.9-.7,3.8-1.2,1.6-2.1,2.1-1.9.8-3,.8c-1.7,0-3.2-.6-4.2-1.7s-1.6-2.7-1.6-4.8h0ZM149.6,293.8c0,1.6.3,2.8,1,3.6s1.6,1.2,2.6,1.2,1.9-.4,2.6-1.2,1-2,1-3.6-.3-2.7-1-3.5-1.6-1.2-2.6-1.2-1.9.4-2.6,1.2-1,2-1,3.6h0Z"/>
    <path class="st14" d="M169.7,298.5c-.8.7-1.5,1.1-2.3,1.4s-1.5.4-2.3.4c-1.4,0-2.4-.3-3.2-1s-1.1-1.5-1.1-2.6.1-1.2.4-1.7.6-.9,1.1-1.2,1-.5,1.5-.7c.4-.1,1-.2,1.9-.3,1.7-.2,3-.4,3.8-.7v-.6c0-.9-.2-1.5-.6-1.8-.5-.5-1.3-.7-2.4-.7s-1.7.2-2.2.5-.8,1-1,1.8l-2.1-.3c.2-.9.5-1.6.9-2.1s1.1-1,1.9-1.3,1.8-.4,2.8-.4,1.9.1,2.6.4,1.2.6,1.5.9.5.9.7,1.4c0,.4.1,1,.1,1.9v2.8c0,2,0,3.2.1,3.7s.3,1,.5,1.5h-2.2c-.2-.4-.4-.9-.4-1.5v.2ZM169.6,293.8c-.8.3-1.9.6-3.4.8-.9.1-1.5.3-1.8.4s-.6.4-.8.7-.3.6-.3,1c0,.6.2,1,.6,1.4s1,.6,1.9.6,1.5-.2,2.2-.5,1.1-.8,1.4-1.5c.2-.5.3-1.2.3-2.1v-.8h0Z"/>
    <path class="st14" d="M183,300v-1.6c-.8,1.2-1.9,1.9-3.5,1.9s-1.9-.3-2.7-.8-1.5-1.3-1.9-2.3-.7-2.1-.7-3.4.2-2.4.6-3.4,1-1.8,1.9-2.3,1.8-.8,2.8-.8,1.4.2,2,.5,1.1.7,1.4,1.2v-6.2h2.1v17.2h-2ZM176.4,293.8c0,1.6.3,2.8,1,3.6s1.5,1.2,2.4,1.2,1.7-.4,2.3-1.1,1-1.9,1-3.5-.3-3-1-3.8-1.5-1.2-2.4-1.2-1.7.4-2.3,1.1-.9,2-.9,3.6h-.1Z"/>
    <path class="st14" d="M203.1,298.5c-.8.7-1.5,1.1-2.3,1.4s-1.5.4-2.3.4c-1.4,0-2.4-.3-3.2-1s-1.1-1.5-1.1-2.6.1-1.2.4-1.7.6-.9,1.1-1.2,1-.5,1.5-.7c.4-.1,1-.2,1.9-.3,1.7-.2,3-.4,3.8-.7v-.6c0-.9-.2-1.5-.6-1.8-.5-.5-1.3-.7-2.4-.7s-1.7.2-2.2.5-.8,1-1,1.8l-2.1-.3c.2-.9.5-1.6.9-2.1s1.1-1,1.9-1.3,1.8-.4,2.8-.4,1.9.1,2.6.4,1.2.6,1.5.9.5.9.7,1.4c0,.4.1,1,.1,1.9v2.8c0,2,0,3.2.1,3.7s.3,1,.5,1.5h-2.2c-.2-.4-.4-.9-.4-1.5v.2ZM202.9,293.8c-.8.3-1.9.6-3.4.8-.9.1-1.5.3-1.8.4s-.6.4-.8.7-.3.6-.3,1c0,.6.2,1,.6,1.4s1,.6,1.9.6,1.5-.2,2.2-.5,1.1-.8,1.4-1.5c.2-.5.3-1.2.3-2.1v-.8h0Z"/>
    <path class="st14" d="M208.3,300v-12.4h1.9v1.8c.9-1.4,2.2-2.1,4-2.1s1.4.1,2.1.4,1.1.6,1.4,1.1.5,1,.7,1.6c0,.4.1,1.1.1,2.1v7.7h-2.1v-7.6c0-.9,0-1.5-.2-1.9s-.5-.8-.9-1-.9-.4-1.5-.4c-.9,0-1.7.3-2.3.9s-1,1.7-1,3.2v6.8h-2.1v-.2Z"/>
    <path class="st14" d="M221.6,304.8l-.2-2c.5.1.9.2,1.2.2s.8,0,1.1-.2.5-.4.7-.7c.1-.2.3-.7.6-1.6,0-.1.1-.3.2-.5l-4.7-12.5h2.3l2.6,7.2c.3.9.6,1.9.9,2.9.2-1,.5-1.9.9-2.8l2.7-7.3h2.1l-4.7,12.7c-.5,1.4-.9,2.3-1.2,2.8-.4.7-.8,1.2-1.3,1.5s-1.1.5-1.7.5-.9,0-1.4-.3h-.1Z"/>
    <path class="st14" d="M240.3,285.2v-2.4h2.1v2.4h-2.1ZM240.3,300v-12.4h2.1v12.4h-2.1Z"/>
    <path class="st14" d="M245.7,300v-12.4h1.9v1.7c.4-.6.9-1.1,1.6-1.5s1.4-.6,2.2-.6,1.7.2,2.3.6,1,.9,1.2,1.6c1-1.5,2.3-2.2,3.8-2.2s2.2.3,2.8,1,1,1.7,1,3.2v8.5h-2.1v-7.8c0-.8,0-1.5-.2-1.8s-.4-.7-.7-.9-.8-.3-1.3-.3c-.9,0-1.6.3-2.2.9s-.9,1.5-.9,2.8v7.2h-2.1v-8.1c0-.9-.2-1.6-.5-2.1s-.9-.7-1.7-.7-1.1.2-1.6.5-.9.8-1.1,1.4-.3,1.5-.3,2.6v6.5h-2.1,0Z"/>
    <path class="st14" d="M273.8,298.5c-.8.7-1.5,1.1-2.3,1.4s-1.5.4-2.3.4c-1.4,0-2.4-.3-3.2-1s-1.1-1.5-1.1-2.6.1-1.2.4-1.7.6-.9,1.1-1.2,1-.5,1.5-.7c.4-.1,1-.2,1.9-.3,1.7-.2,3-.4,3.8-.7v-.6c0-.9-.2-1.5-.6-1.8-.5-.5-1.3-.7-2.4-.7s-1.7.2-2.2.5-.8,1-1,1.8l-2.1-.3c.2-.9.5-1.6.9-2.1s1.1-1,1.9-1.3,1.8-.4,2.8-.4,1.9.1,2.6.4,1.2.6,1.5.9.5.9.7,1.4c0,.4.1,1,.1,1.9v2.8c0,2,0,3.2.1,3.7s.3,1,.5,1.5h-2.2c-.2-.4-.4-.9-.4-1.5v.2ZM273.6,293.8c-.8.3-1.9.6-3.4.8-.9.1-1.5.3-1.8.4s-.6.4-.8.7-.3.6-.3,1c0,.6.2,1,.6,1.4s1,.6,1.9.6,1.5-.2,2.2-.5,1.1-.8,1.4-1.5c.2-.5.3-1.2.3-2.1v-.8h-.1Z"/>
    <path class="st14" d="M278.6,301l2.1.3c0,.6.3,1.1.7,1.4.5.4,1.2.6,2.1.6s1.7-.2,2.3-.6.9-.9,1.1-1.6c.1-.4.2-1.3.2-2.7-.9,1.1-2.1,1.6-3.4,1.6s-3-.6-4-1.9-1.4-2.7-1.4-4.4.2-2.3.6-3.3,1.1-1.8,1.9-2.3,1.8-.8,2.9-.8,2.7.6,3.6,1.8v-1.5h1.9v10.8c0,1.9-.2,3.3-.6,4.1s-1,1.4-1.9,1.9-1.9.7-3.2.7-2.7-.3-3.6-1-1.4-1.7-1.3-3h0ZM280.4,293.6c0,1.6.3,2.8,1,3.6s1.5,1.1,2.4,1.1,1.8-.4,2.4-1.1,1-1.9,1-3.5-.3-2.7-1-3.4-1.5-1.2-2.4-1.2-1.7.4-2.4,1.1-1,1.9-1,3.4Z"/>
    <path class="st14" d="M300.9,296l2.2.3c-.3,1.3-1,2.3-1.9,3s-2.1,1.1-3.6,1.1-3.3-.6-4.3-1.7-1.6-2.7-1.6-4.7.5-3.7,1.6-4.9,2.5-1.7,4.2-1.7,3,.6,4.1,1.7,1.6,2.7,1.6,4.8,0,.3,0,.6h-9.3c0,1.4.5,2.4,1.2,3.1s1.6,1.1,2.6,1.1,1.4-.2,2-.6,1-1.1,1.3-1.9v-.2ZM293.9,292.6h6.9c0-1-.4-1.8-.8-2.4-.7-.8-1.5-1.2-2.6-1.2s-1.8.3-2.4,1-1,1.5-1.1,2.6Z"/>
  </g>
  <g class="st10">
    <g>
      <path class="st26" d="M89.2,347.3c-.4-.4-1-1-1.8-1.8-2.3-2.3-.8-3.9-.8-3.9l-1.7-1.7s-2.9,3.3.4,6.5l2.4,2.4,1.5-1.5Z"/>
      <path class="st26" d="M92.6,343.4h2.7c1.8-4.1-.6-9.2-.6-9.3l-2.2,1.1s1.8,5.1,0,8.2h0Z"/>
      <path class="st33" d="M96.7,344.5h0c-.6-1.8-2.2-3-4.1-3.1-1.9,0-3.6,1.3-4.1,3h0l-2,5.6h12.2l-2-5.6h0Z"/>
      <polygon class="st33" points="87.2 337 96.4 329.2 98.8 332 89.6 339.8 87.2 337"/>
      <polygon class="st26" points="89.1 339.3 87.6 337.5 86.9 338.5 88.1 339.8 89.1 339.3"/>
      <polygon class="st26" points="99.3 330.7 97.8 328.9 96.8 329.7 98.3 331.5 99.3 330.7"/>
      <polygon class="st33" points="99.7 331.2 97.3 328.4 98.3 327.6 100.6 330.4 99.7 331.2"/>
      <path class="st6" d="M96.3,336.6c-.4,1.3-1.8,1.9-3.1,1.5-1.3-.4-1.9-1.8-1.5-3.1.4-1.3,1.8-1.9,3.1-1.5,1.3.4,1.9,1.8,1.5,3.1Z"/>
      <circle class="st6" cx="92.6" cy="345.8" r="2.4"/>
      <path class="st33" d="M93.6,336.9c.6.2,1.3-.1,1.5-.7s0-1.3-.7-1.5-1.3.1-1.5.7,0,1.3.7,1.5Z"/>
      <path class="st33" d="M92.6,344.6c.7,0,1.2.5,1.2,1.2s-.5,1.2-1.2,1.2-1.2-.5-1.2-1.2.5-1.2,1.2-1.2Z"/>
      <rect class="st33" x="85.3" y="337.9" width=".6" height="6.1" transform="translate(-216 160.4) rotate(-45)"/>
      <rect class="st21" x="85.7" y="337.4" width=".6" height="6.1" transform="translate(-215.5 160.6) rotate(-45)"/>
    </g>
    <path class="st14" d="M112.9,347.3v-17.2h2.3v17.2h-2.3Z"/>
    <path class="st14" d="M118.9,347.3v-12.4h1.9v1.8c.9-1.4,2.2-2.1,4-2.1s1.4.1,2.1.4,1.1.6,1.4,1.1.5,1,.7,1.6c0,.4.1,1.1.1,2.1v7.7h-2.1v-7.6c0-.9,0-1.5-.2-1.9s-.5-.8-.9-1-.9-.4-1.5-.4c-.9,0-1.7.3-2.3.9s-1,1.7-1,3.2v6.8h-2.1v-.2Z"/>
    <path class="st14" d="M136.9,345.4l.3,1.9c-.6.1-1.1.2-1.6.2-.8,0-1.4-.1-1.8-.4s-.7-.6-.9-1-.3-1.2-.3-2.5v-7.2h-1.5v-1.6h1.5v-3.1l2.1-1.3v4.3h2.1v1.6h-2.1v7.3c0,.6,0,1,.1,1.2s.2.3.4.4.4.2.7.2h1Z"/>
    <path class="st14" d="M147.5,343.3l2.2.3c-.3,1.3-1,2.3-1.9,3s-2.1,1.1-3.6,1.1-3.3-.6-4.3-1.7-1.6-2.7-1.6-4.7.5-3.7,1.6-4.9,2.5-1.7,4.2-1.7,3,.6,4.1,1.7,1.6,2.7,1.6,4.8,0,.3,0,.6h-9.3c0,1.4.5,2.4,1.2,3.1s1.6,1.1,2.6,1.1,1.4-.2,2-.6,1-1.1,1.3-1.9v-.2ZM140.5,339.9h6.9c0-1-.4-1.8-.8-2.4-.7-.8-1.5-1.2-2.6-1.2s-1.8.3-2.4,1-1,1.5-1.1,2.6h0Z"/>
    <path class="st14" d="M152.3,347.3v-12.4h1.9v1.9c.5-.9.9-1.5,1.3-1.7s.9-.4,1.4-.4,1.4.2,2.2.7l-.7,2c-.5-.3-1-.5-1.5-.5s-.9.1-1.2.4-.6.7-.8,1.2c-.2.8-.4,1.6-.4,2.5v6.5h-2.1v-.2Z"/>
    <path class="st14" d="M168.4,345.8c-.8.7-1.5,1.1-2.3,1.4s-1.5.4-2.3.4c-1.4,0-2.4-.3-3.2-1s-1.1-1.5-1.1-2.6.1-1.2.4-1.7.6-.9,1.1-1.2,1-.5,1.5-.7c.4-.1,1-.2,1.9-.3,1.7-.2,3-.4,3.8-.7v-.6c0-.9-.2-1.5-.6-1.8-.5-.5-1.3-.7-2.4-.7s-1.7.2-2.2.5-.8,1-1,1.8l-2.1-.3c.2-.9.5-1.6.9-2.1s1.1-1,1.9-1.3,1.8-.4,2.8-.4,1.9.1,2.6.4,1.2.6,1.5.9.5.9.7,1.4c0,.4.1,1,.1,1.9v2.8c0,2,0,3.2.1,3.7s.3,1,.5,1.5h-2.2c-.2-.4-.4-.9-.4-1.5v.2ZM168.2,341c-.8.3-1.9.6-3.4.8-.9.1-1.5.3-1.8.4s-.6.4-.8.7-.3.6-.3,1c0,.6.2,1,.6,1.4s1,.6,1.9.6,1.5-.2,2.2-.5,1.1-.8,1.4-1.5c.2-.5.3-1.2.3-2.1v-.8h0Z"/>
    <path class="st14" d="M181.7,342.7l2.1.3c-.2,1.4-.8,2.5-1.7,3.4s-2.1,1.2-3.4,1.2-3.1-.6-4.1-1.7-1.6-2.7-1.6-4.8.2-2.5.7-3.5,1.1-1.8,2-2.3,1.9-.8,3-.8,2.5.3,3.3,1,1.4,1.7,1.7,2.9l-2.1.3c-.2-.8-.5-1.5-1-1.9s-1.1-.6-1.8-.6c-1.1,0-1.9.4-2.6,1.1s-1,2-1,3.6.3,2.9,1,3.6,1.5,1.1,2.5,1.1,1.5-.3,2.1-.8.9-1.3,1.1-2.3l-.2.2Z"/>
    <path class="st14" d="M190.2,345.4l.3,1.9c-.6.1-1.1.2-1.6.2-.8,0-1.4-.1-1.8-.4s-.7-.6-.9-1-.3-1.2-.3-2.5v-7.2h-1.5v-1.6h1.5v-3.1l2.1-1.3v4.3h2.1v1.6h-2.1v7.3c0,.6,0,1,.1,1.2s.2.3.4.4.4.2.7.2h1Z"/>
    <path class="st14" d="M192.3,332.5v-2.4h2.1v2.4h-2.1ZM192.3,347.3v-12.4h2.1v12.4h-2.1Z"/>
    <path class="st14" d="M201.1,347.3l-4.7-12.4h2.2l2.7,7.5c.3.8.6,1.6.8,2.5.2-.7.4-1.4.8-2.4l2.8-7.6h2.2l-4.7,12.4h-2.1Z"/>
    <path class="st14" d="M218.1,343.3l2.2.3c-.3,1.3-1,2.3-1.9,3s-2.1,1.1-3.6,1.1-3.3-.6-4.3-1.7-1.6-2.7-1.6-4.7.5-3.7,1.6-4.9,2.5-1.7,4.2-1.7,3,.6,4.1,1.7,1.6,2.7,1.6,4.8,0,.3,0,.6h-9.3c0,1.4.5,2.4,1.2,3.1s1.6,1.1,2.6,1.1,1.4-.2,2-.6,1-1.1,1.3-1.9v-.2ZM211.2,339.9h6.9c0-1-.4-1.8-.8-2.4-.7-.8-1.5-1.2-2.6-1.2s-1.8.3-2.4,1-1,1.5-1.1,2.6h0Z"/>
    <path class="st14" d="M229.1,342.8l2.1-.3c.2,1.2.7,2.1,1.2,2.6s1.3.8,2.1.8,1.8-.3,2.5-1,1-1.5,1-2.6-.3-1.8-.9-2.4-1.4-.9-2.4-.9-.9,0-1.5.2l.2-1.9h.3c.9,0,1.7-.2,2.4-.7s1.1-1.2,1.1-2.2-.3-1.4-.8-1.9-1.2-.8-2-.8-1.5.3-2.1.8-.9,1.3-1.1,2.3l-2.1-.4c.3-1.4.8-2.5,1.8-3.3s2.1-1.2,3.4-1.2,1.8.2,2.6.6,1.4,1,1.8,1.6.6,1.4.6,2.2-.2,1.4-.6,2-1,1.1-1.8,1.5c1,.2,1.8.7,2.4,1.5s.8,1.7.8,2.8-.5,2.8-1.6,3.8-2.5,1.6-4.1,1.6-2.8-.4-3.8-1.3-1.6-2.1-1.7-3.5h.2Z"/>
    <path class="st14" d="M243.3,347.3v-17.2h5.9c1.3,0,2.4,0,3.1.2,1,.2,1.8.6,2.5,1.2.9.8,1.6,1.7,2,2.9s.7,2.6.7,4.1-.2,2.5-.5,3.5-.7,1.8-1.2,2.5-1,1.2-1.6,1.6-1.2.7-2.1.9-1.7.3-2.8.3h-6.2.2ZM245.5,345.3h3.7c1.1,0,2-.1,2.7-.3s1.2-.5,1.5-.9,1-1.3,1.3-2.2.5-2,.5-3.3-.3-3.2-.9-4.1-1.3-1.6-2.2-1.9c-.6-.2-1.6-.4-2.9-.4h-3.6v13.1h-.1Z"/>
    <path class="st14" d="M270.4,347.3l-4.7-12.4h2.2l2.7,7.5c.3.8.6,1.6.8,2.5.2-.7.4-1.4.8-2.4l2.8-7.6h2.2l-4.7,12.4h-2.1Z"/>
    <path class="st14" d="M279,332.5v-2.4h2.1v2.4h-2.1ZM279,347.3v-12.4h2.1v12.4h-2.1Z"/>
    <path class="st14" d="M283.5,343.6l2.1-.3c.1.8.4,1.5,1,1.9s1.3.7,2.2.7,1.7-.2,2.2-.6.7-.9.7-1.4-.2-.9-.6-1.1c-.3-.2-1-.4-2.2-.7-1.5-.4-2.6-.7-3.2-1s-1.1-.7-1.4-1.2-.5-1.1-.5-1.7.1-1.1.4-1.5.6-.9,1-1.2c.3-.2.8-.4,1.3-.6s1.2-.3,1.8-.3c1,0,1.8.1,2.6.4s1.3.7,1.6,1.1.6,1.1.7,1.9l-2.1.3c0-.6-.4-1.1-.8-1.5s-1.1-.5-1.9-.5-1.7.2-2.1.5-.6.7-.6,1.1,0,.5.3.7c.2.2.4.4.8.6.2,0,.8.3,1.9.5,1.5.4,2.5.7,3.1,1s1.1.6,1.4,1.1.5,1.1.5,1.8-.2,1.4-.6,2-1,1.1-1.8,1.4-1.6.5-2.6.5c-1.6,0-2.8-.3-3.7-1s-1.4-1.7-1.6-3h.1Z"/>
    <path class="st14" d="M304.5,347.3v-1.8c-1,1.4-2.3,2.1-3.9,2.1s-1.4-.1-2.1-.4-1.1-.6-1.4-1.1-.5-.9-.7-1.6c0-.4-.1-1.1-.1-2v-7.7h2.1v6.9c0,1.1,0,1.8.1,2.2.1.6.4,1,.8,1.3s1,.5,1.6.5,1.2-.2,1.8-.5.9-.8,1.2-1.3.3-1.4.3-2.4v-6.7h2.1v12.4h-1.9.1Z"/>
    <path class="st14" d="M317.8,345.8c-.8.7-1.5,1.1-2.3,1.4s-1.5.4-2.3.4c-1.4,0-2.4-.3-3.2-1s-1.1-1.5-1.1-2.6.1-1.2.4-1.7.6-.9,1.1-1.2,1-.5,1.5-.7c.4-.1,1-.2,1.9-.3,1.7-.2,3-.4,3.8-.7v-.6c0-.9-.2-1.5-.6-1.8-.5-.5-1.3-.7-2.4-.7s-1.7.2-2.2.5-.8,1-1,1.8l-2.1-.3c.2-.9.5-1.6.9-2.1s1.1-1,1.9-1.3,1.8-.4,2.8-.4,1.9.1,2.6.4,1.2.6,1.5.9.5.9.7,1.4c0,.4.1,1,.1,1.9v2.8c0,2,0,3.2.1,3.7s.3,1,.5,1.5h-2.2c-.2-.4-.4-.9-.4-1.5v.2ZM317.6,341c-.8.3-1.9.6-3.4.8-.9.1-1.5.3-1.8.4s-.6.4-.8.7-.3.6-.3,1c0,.6.2,1,.6,1.4s1,.6,1.9.6,1.5-.2,2.2-.5,1.1-.8,1.4-1.5c.2-.5.3-1.2.3-2.1v-.8h-.1Z"/>
    <path class="st14" d="M323,347.3v-17.2h2.1v17.2h-2.1Z"/>
    <path class="st14" d="M328.4,332.5v-2.4h2.1v2.4h-2.1ZM328.4,347.3v-12.4h2.1v12.4h-2.1Z"/>
    <path class="st14" d="M332.6,347.3v-1.7l7.9-9.1h-7.5v-1.7h10.2v1.4l-6.7,7.9-1.3,1.4c.9,0,1.8-.1,2.7-.1h5.8v1.8h-11.1Z"/>
    <path class="st14" d="M353.8,345.8c-.8.7-1.5,1.1-2.3,1.4s-1.5.4-2.3.4c-1.4,0-2.4-.3-3.2-1s-1.1-1.5-1.1-2.6.1-1.2.4-1.7.6-.9,1.1-1.2,1-.5,1.5-.7c.4-.1,1-.2,1.9-.3,1.7-.2,3-.4,3.8-.7v-.6c0-.9-.2-1.5-.6-1.8-.5-.5-1.3-.7-2.4-.7s-1.7.2-2.2.5-.8,1-1,1.8l-2.1-.3c.2-.9.5-1.6.9-2.1s1.1-1,1.9-1.3,1.8-.4,2.8-.4,1.9.1,2.6.4,1.2.6,1.5.9.5.9.7,1.4c0,.4.1,1,.1,1.9v2.8c0,2,0,3.2.1,3.7s.3,1,.5,1.5h-2.2c-.2-.4-.4-.9-.4-1.5v.2ZM353.6,341c-.8.3-1.9.6-3.4.8-.9.1-1.5.3-1.8.4s-.6.4-.8.7-.3.6-.3,1c0,.6.2,1,.6,1.4s1,.6,1.9.6,1.5-.2,2.2-.5,1.1-.8,1.4-1.5c.2-.5.3-1.2.3-2.1v-.8h-.1Z"/>
    <path class="st14" d="M363.6,345.4l.3,1.9c-.6.1-1.1.2-1.6.2-.8,0-1.4-.1-1.8-.4s-.7-.6-.9-1-.3-1.2-.3-2.5v-7.2h-1.5v-1.6h1.5v-3.1l2.1-1.3v4.3h2.1v1.6h-2.1v7.3c0,.6,0,1,.1,1.2s.2.3.4.4.4.2.7.2h1Z"/>
    <path class="st14" d="M365.7,332.5v-2.4h2.1v2.4h-2.1ZM365.7,347.3v-12.4h2.1v12.4h-2.1Z"/>
    <path class="st14" d="M370.2,341.1c0-2.3.6-4,1.9-5.1,1.1-.9,2.4-1.4,3.9-1.4s3.1.6,4.2,1.7,1.6,2.7,1.6,4.6-.2,2.9-.7,3.8-1.2,1.6-2.1,2.1-1.9.8-3,.8c-1.7,0-3.2-.6-4.2-1.7s-1.6-2.7-1.6-4.8h0ZM372.4,341.1c0,1.6.3,2.8,1,3.6s1.6,1.2,2.6,1.2,1.9-.4,2.6-1.2,1-2,1-3.6-.3-2.7-1-3.5-1.6-1.2-2.6-1.2-1.9.4-2.6,1.2-1,2-1,3.6h0Z"/>
    <path class="st14" d="M384.4,347.3v-12.4h1.9v1.8c.9-1.4,2.2-2.1,4-2.1s1.4.1,2.1.4,1.1.6,1.4,1.1.5,1,.7,1.6c0,.4.1,1.1.1,2.1v7.7h-2.1v-7.6c0-.9,0-1.5-.2-1.9s-.5-.8-.9-1-.9-.4-1.5-.4c-.9,0-1.7.3-2.3.9s-1,1.7-1,3.2v6.8h-2.1v-.2Z"/>
  </g>
  <g class="st10">
    <g>
      <rect class="st33" x="80" y="374.2" width="1.5" height="24"/>
      <rect class="st33" x="80" y="396.7" width="24" height="1.5"/>
      <polygon class="st25" points="94.5 396.7 99 396.7 99 376.7 94.5 381.7 94.5 396.7"/>
      <polygon class="st4" points="88 396.7 92.5 396.7 92.5 381.7 88 386.7 88 396.7"/>
      <polygon class="st24" points="81.5 396.7 86 396.7 86 386.7 81.5 391.7 81.5 396.7"/>
      <rect class="st29" x="92.5" y="381.7" width="5" height="15"/>
      <rect class="st5" x="86" y="386.7" width="5" height="10"/>
      <rect class="st27" x="99" y="376.7" width="5" height="20"/>
    </g>
    <path class="st14" d="M112.6,394.6v-17.2h7.6c1.5,0,2.7.2,3.5.5s1.4.9,1.9,1.6.7,1.6.7,2.6-.4,2.2-1.2,3.1-2,1.4-3.7,1.6c.6.3,1.1.6,1.4.9.7.6,1.3,1.4,1.9,2.3l3,4.7h-2.9l-2.3-3.6c-.7-1-1.2-1.8-1.6-2.4s-.8-.9-1.2-1.1-.7-.4-1-.5h-3.9v7.6h-2.3,0ZM114.8,385h4.9c1,0,1.9-.1,2.4-.3s1-.6,1.3-1,.5-1,.5-1.5c0-.8-.3-1.5-.9-2s-1.5-.8-2.8-.8h-5.4v5.7h0Z"/>
    <path class="st14" d="M137.9,387.8v-2h7.3v6.4c-1.1.9-2.3,1.6-3.5,2s-2.4.7-3.7.7-3.2-.4-4.6-1.1-2.4-1.8-3.1-3.1-1.1-2.9-1.1-4.6.3-3.2,1-4.7,1.7-2.5,3-3.2,2.8-1.1,4.5-1.1,2.4.2,3.4.6,1.8,1,2.4,1.7,1,1.7,1.3,2.8l-2.1.6c-.3-.9-.6-1.6-1-2.1s-.9-.9-1.6-1.2-1.5-.5-2.4-.5-1.9.2-2.7.5-1.4.7-1.8,1.2-.8,1.1-1.1,1.7c-.4,1.1-.7,2.2-.7,3.5s.3,2.8.8,3.8,1.3,1.8,2.3,2.3,2.1.8,3.2.8,1.9-.2,2.9-.6,1.6-.8,2.1-1.2v-3.2h-5.1.3Z"/>
    <path class="st14" d="M148.4,394.6v-17.2h6.4c1.3,0,2.4.2,3.2.5s1.4.9,1.9,1.6.7,1.5.7,2.3-.2,1.4-.6,2.1-1,1.2-1.8,1.6c1,.3,1.8.8,2.4,1.6s.8,1.6.8,2.6-.2,1.6-.5,2.2-.8,1.2-1.3,1.6-1.1.7-1.9.8-1.7.3-2.8.3h-6.6.1ZM150.7,384.6h3.7c1,0,1.7,0,2.2-.2.6-.2,1-.5,1.3-.9s.4-.9.4-1.5-.1-1.1-.4-1.5-.7-.7-1.2-.9-1.4-.2-2.6-.2h-3.4v5.2ZM150.7,392.6h5.8c.5,0,1-.2,1.3-.5s.6-.5.9-1,.3-.9.3-1.4-.2-1.2-.5-1.7-.8-.8-1.4-1-1.4-.3-2.5-.3h-4v5.9h0Z"/>
    <path class="st14" d="M179,390l2.1.3c-.2,1.4-.8,2.5-1.7,3.4s-2.1,1.2-3.4,1.2-3.1-.6-4.1-1.7-1.6-2.7-1.6-4.8.2-2.5.7-3.5,1.1-1.8,2-2.3,1.9-.8,3-.8,2.5.3,3.3,1,1.4,1.7,1.7,2.9l-2.1.3c-.2-.8-.5-1.5-1-1.9s-1.1-.6-1.8-.6c-1.1,0-1.9.4-2.6,1.1s-1,2-1,3.6.3,2.9,1,3.6,1.5,1.1,2.5,1.1,1.5-.3,2.1-.8.9-1.3,1.1-2.3l-.2.2Z"/>
    <path class="st14" d="M182.1,388.4c0-2.3.6-4,1.9-5.1,1.1-.9,2.4-1.4,3.9-1.4s3.1.6,4.2,1.7,1.6,2.7,1.6,4.6-.2,2.9-.7,3.8-1.2,1.6-2.1,2.1-1.9.8-3,.8c-1.7,0-3.2-.6-4.2-1.7s-1.6-2.7-1.6-4.8h0ZM184.3,388.4c0,1.6.3,2.8,1,3.6s1.6,1.2,2.6,1.2,1.9-.4,2.6-1.2,1-2,1-3.6-.3-2.7-1-3.5-1.6-1.2-2.6-1.2-1.9.4-2.6,1.2-1,2-1,3.6h0Z"/>
    <path class="st14" d="M196.2,394.6v-17.2h2.1v17.2h-2.1Z"/>
    <path class="st14" d="M200.8,388.4c0-2.3.6-4,1.9-5.1,1.1-.9,2.4-1.4,3.9-1.4s3.1.6,4.2,1.7,1.6,2.7,1.6,4.6-.2,2.9-.7,3.8-1.2,1.6-2.1,2.1-1.9.8-3,.8c-1.7,0-3.2-.6-4.2-1.7s-1.6-2.7-1.6-4.8h0ZM203,388.4c0,1.6.3,2.8,1,3.6s1.6,1.2,2.6,1.2,1.9-.4,2.6-1.2,1-2,1-3.6-.3-2.7-1-3.5-1.6-1.2-2.6-1.2-1.9.4-2.6,1.2-1,2-1,3.6h0Z"/>
    <path class="st14" d="M214.9,394.6v-12.4h1.9v1.9c.5-.9.9-1.5,1.3-1.7s.9-.4,1.4-.4,1.4.2,2.2.7l-.7,2c-.5-.3-1-.5-1.5-.5s-.9.1-1.2.4-.6.7-.8,1.2c-.2.8-.4,1.6-.4,2.5v6.5h-2.1v-.2Z"/>
    <path class="st14" d="M228.8,390.9l2.1-.3c.1.8.4,1.5,1,1.9s1.3.7,2.2.7,1.7-.2,2.2-.6.7-.9.7-1.4-.2-.9-.6-1.1c-.3-.2-1-.4-2.2-.7-1.5-.4-2.6-.7-3.2-1s-1.1-.7-1.4-1.2-.5-1.1-.5-1.7.1-1.1.4-1.5.6-.9,1-1.2c.3-.2.8-.4,1.3-.6s1.2-.3,1.8-.3c1,0,1.8.1,2.6.4s1.3.7,1.6,1.1.6,1.1.7,1.9l-2.1.3c0-.6-.4-1.1-.8-1.5s-1.1-.5-1.9-.5-1.7.2-2.1.5-.6.7-.6,1.1,0,.5.3.7c.2.2.4.4.8.6.2,0,.8.3,1.9.5,1.5.4,2.5.7,3.1,1s1.1.6,1.4,1.1.5,1.1.5,1.8-.2,1.4-.6,2-1,1.1-1.8,1.4-1.6.5-2.6.5c-1.6,0-2.8-.3-3.7-1s-1.4-1.7-1.6-3h.1Z"/>
    <path class="st14" d="M241.6,399.4v-17.2h1.9v1.6c.5-.6,1-1.1,1.5-1.4s1.3-.5,2.1-.5,2,.3,2.8.8,1.4,1.3,1.8,2.3.6,2.1.6,3.3-.2,2.4-.7,3.4-1.1,1.8-2,2.3-1.8.8-2.7.8-1.3-.1-1.9-.4-1-.7-1.4-1.1v6.1h-2.1,0ZM243.5,388.4c0,1.6.3,2.8,1,3.6s1.4,1.1,2.4,1.1,1.7-.4,2.4-1.2,1-2,1-3.7-.3-2.8-1-3.6-1.4-1.2-2.3-1.2-1.7.4-2.4,1.3-1,2.1-1,3.7h0Z"/>
    <path class="st14" d="M263.1,393c-.8.7-1.5,1.1-2.3,1.4s-1.5.4-2.3.4c-1.4,0-2.4-.3-3.2-1s-1.1-1.5-1.1-2.6.1-1.2.4-1.7.6-.9,1.1-1.2c.5-.3,1-.5,1.5-.7.4-.1,1-.2,1.9-.3,1.7-.2,3-.4,3.8-.7v-.6c0-.9-.2-1.5-.6-1.8-.5-.5-1.3-.7-2.4-.7s-1.7.2-2.2.5-.8,1-1,1.8l-2.1-.3c.2-.9.5-1.6.9-2.1s1.1-1,1.9-1.3,1.8-.4,2.8-.4,1.9.1,2.6.4,1.2.6,1.5.9.5.9.7,1.4c0,.4.1,1,.1,1.9v2.8c0,2,0,3.2.1,3.7s.3,1,.5,1.5h-2.2c-.2-.4-.4-.9-.4-1.5v.2ZM262.9,388.3c-.8.3-1.9.6-3.4.8-.9.1-1.5.3-1.8.4s-.6.4-.8.7-.3.6-.3,1c0,.6.2,1,.6,1.4s1,.6,1.9.6,1.5-.2,2.2-.5,1.1-.8,1.4-1.5c.2-.5.3-1.2.3-2.1v-.8h-.1Z"/>
    <path class="st14" d="M276.4,390l2.1.3c-.2,1.4-.8,2.5-1.7,3.4s-2.1,1.2-3.4,1.2-3.1-.6-4.1-1.7-1.6-2.7-1.6-4.8.2-2.5.7-3.5,1.1-1.8,2-2.3,1.9-.8,3-.8,2.5.3,3.3,1,1.4,1.7,1.7,2.9l-2.1.3c-.2-.8-.5-1.5-1-1.9s-1.1-.6-1.8-.6c-1.1,0-1.9.4-2.6,1.1s-1,2-1,3.6.3,2.9,1,3.6,1.5,1.1,2.5,1.1,1.5-.3,2.1-.8.9-1.3,1.1-2.3l-.2.2Z"/>
    <path class="st14" d="M288.8,390.6l2.2.3c-.3,1.3-1,2.3-1.9,3s-2.1,1.1-3.6,1.1-3.3-.6-4.3-1.7-1.6-2.7-1.6-4.7.5-3.7,1.6-4.9,2.5-1.7,4.2-1.7,3,.6,4.1,1.7,1.6,2.7,1.6,4.8,0,.3,0,.6h-9.3c0,1.4.5,2.4,1.2,3.1s1.6,1.1,2.6,1.1,1.4-.2,2-.6,1-1.1,1.3-1.9v-.2ZM281.9,387.2h6.9c0-1-.4-1.8-.8-2.4-.7-.8-1.5-1.2-2.6-1.2s-1.8.3-2.4,1-1,1.5-1.1,2.6Z"/>
    <path class="st14" d="M308.4,393c-.8.7-1.5,1.1-2.3,1.4s-1.5.4-2.3.4c-1.4,0-2.4-.3-3.2-1s-1.1-1.5-1.1-2.6.1-1.2.4-1.7.6-.9,1.1-1.2,1-.5,1.5-.7c.4-.1,1-.2,1.9-.3,1.7-.2,3-.4,3.8-.7v-.6c0-.9-.2-1.5-.6-1.8-.5-.5-1.3-.7-2.4-.7s-1.7.2-2.2.5-.8,1-1,1.8l-2.1-.3c.2-.9.5-1.6.9-2.1s1.1-1,1.9-1.3,1.8-.4,2.8-.4,1.9.1,2.6.4,1.2.6,1.5.9.5.9.7,1.4c0,.4.1,1,.1,1.9v2.8c0,2,0,3.2.1,3.7s.3,1,.5,1.5h-2.2c-.2-.4-.4-.9-.4-1.5v.2ZM308.3,388.3c-.8.3-1.9.6-3.4.8-.9.1-1.5.3-1.8.4s-.6.4-.8.7-.3.6-.3,1c0,.6.2,1,.6,1.4s1,.6,1.9.6,1.5-.2,2.2-.5,1.1-.8,1.4-1.5c.2-.5.3-1.2.3-2.1v-.8h-.1Z"/>
    <path class="st14" d="M313.7,394.6v-12.4h1.9v1.8c.9-1.4,2.2-2.1,4-2.1s1.4.1,2.1.4,1.1.6,1.4,1.1.5,1,.7,1.6c0,.4.1,1.1.1,2.1v7.7h-2.1v-7.6c0-.9,0-1.5-.2-1.9s-.5-.8-.9-1-.9-.4-1.5-.4c-.9,0-1.7.3-2.3.9s-1,1.7-1,3.2v6.8h-2.1v-.2Z"/>
    <path class="st14" d="M335.1,393c-.8.7-1.5,1.1-2.3,1.4s-1.5.4-2.3.4c-1.4,0-2.4-.3-3.2-1s-1.1-1.5-1.1-2.6.1-1.2.4-1.7.6-.9,1.1-1.2,1-.5,1.5-.7c.4-.1,1-.2,1.9-.3,1.7-.2,3-.4,3.8-.7v-.6c0-.9-.2-1.5-.6-1.8-.5-.5-1.3-.7-2.4-.7s-1.7.2-2.2.5-.8,1-1,1.8l-2.1-.3c.2-.9.5-1.6.9-2.1s1.1-1,1.9-1.3,1.8-.4,2.8-.4,1.9.1,2.6.4,1.2.6,1.5.9.5.9.7,1.4c0,.4.1,1,.1,1.9v2.8c0,2,0,3.2.1,3.7s.3,1,.5,1.5h-2.2c-.2-.4-.4-.9-.4-1.5v.2ZM335,388.3c-.8.3-1.9.6-3.4.8-.9.1-1.5.3-1.8.4s-.6.4-.8.7-.3.6-.3,1c0,.6.2,1,.6,1.4s1,.6,1.9.6,1.5-.2,2.2-.5,1.1-.8,1.4-1.5c.2-.5.3-1.2.3-2.1v-.8h-.1Z"/>
    <path class="st14" d="M340.3,394.6v-17.2h2.1v17.2h-2.1Z"/>
    <path class="st14" d="M345.6,399.4l-.2-2c.5.1.9.2,1.2.2s.8,0,1.1-.2.5-.4.7-.7c.1-.2.3-.7.6-1.6,0-.1.1-.3.2-.5l-4.7-12.5h2.3l2.6,7.2c.3.9.6,1.9.9,2.9.2-1,.5-1.9.9-2.8l2.7-7.3h2.1l-4.7,12.7c-.5,1.4-.9,2.3-1.2,2.8-.4.7-.8,1.2-1.3,1.5s-1.1.5-1.7.5-.9,0-1.4-.3h-.1Z"/>
    <path class="st14" d="M356.9,390.9l2.1-.3c.1.8.4,1.5,1,1.9s1.3.7,2.2.7,1.7-.2,2.2-.6.7-.9.7-1.4-.2-.9-.6-1.1c-.3-.2-1-.4-2.2-.7-1.5-.4-2.6-.7-3.2-1s-1.1-.7-1.4-1.2-.5-1.1-.5-1.7.1-1.1.4-1.5.6-.9,1-1.2c.3-.2.8-.4,1.3-.6s1.2-.3,1.8-.3c1,0,1.8.1,2.6.4s1.3.7,1.6,1.1.6,1.1.7,1.9l-2.1.3c0-.6-.4-1.1-.8-1.5s-1.1-.5-1.9-.5-1.7.2-2.1.5-.6.7-.6,1.1,0,.5.3.7c.2.2.4.4.8.6.2,0,.8.3,1.9.5,1.5.4,2.5.7,3.1,1s1.1.6,1.4,1.1.5,1.1.5,1.8-.2,1.4-.6,2-1,1.1-1.8,1.4-1.6.5-2.6.5c-1.6,0-2.8-.3-3.7-1s-1.4-1.7-1.6-3h.1Z"/>
    <path class="st14" d="M369.7,379.8v-2.4h2.1v2.4h-2.1ZM369.7,394.6v-12.4h2.1v12.4h-2.1Z"/>
    <path class="st14" d="M374.2,390.9l2.1-.3c.1.8.4,1.5,1,1.9s1.3.7,2.2.7,1.7-.2,2.2-.6.7-.9.7-1.4-.2-.9-.6-1.1c-.3-.2-1-.4-2.2-.7-1.5-.4-2.6-.7-3.2-1s-1.1-.7-1.4-1.2-.5-1.1-.5-1.7.1-1.1.4-1.5.6-.9,1-1.2c.3-.2.8-.4,1.3-.6s1.2-.3,1.8-.3c1,0,1.8.1,2.6.4s1.3.7,1.6,1.1.6,1.1.7,1.9l-2.1.3c0-.6-.4-1.1-.8-1.5s-1.1-.5-1.9-.5-1.7.2-2.1.5-.6.7-.6,1.1,0,.5.3.7c.2.2.4.4.8.6.2,0,.8.3,1.9.5,1.5.4,2.5.7,3.1,1s1.1.6,1.4,1.1.5,1.1.5,1.8-.2,1.4-.6,2-1,1.1-1.8,1.4-1.6.5-2.6.5c-1.6,0-2.8-.3-3.7-1s-1.4-1.7-1.6-3h.1Z"/>
  </g>
  <g class="st10">
    <polygon class="st22" points="96.7 422.2 93.3 423.2 91 422.2 87.3 435.1 91.2 435.1 87.8 444.7 96.2 431.8 91.1 431.8 96.7 422.2"/>
    <path class="st14" d="M112.6,441.9v-17.2h7.6c1.5,0,2.7.2,3.5.5s1.4.9,1.9,1.6.7,1.6.7,2.6-.4,2.2-1.2,3.1-2,1.4-3.7,1.6c.6.3,1.1.6,1.4.9.7.6,1.3,1.4,1.9,2.3l3,4.7h-2.9l-2.3-3.6c-.7-1-1.2-1.8-1.6-2.4s-.8-.9-1.2-1.1-.7-.4-1-.5h-3.9v7.6h-2.3,0ZM114.8,432.3h4.9c1,0,1.9-.1,2.4-.3s1-.6,1.3-1,.5-1,.5-1.5c0-.8-.3-1.5-.9-2s-1.5-.8-2.8-.8h-5.4v5.7h0Z"/>
    <path class="st14" d="M138.1,437.9l2.2.3c-.3,1.3-1,2.3-1.9,3s-2.1,1.1-3.6,1.1-3.3-.6-4.3-1.7-1.6-2.7-1.6-4.7.5-3.7,1.6-4.9,2.5-1.7,4.2-1.7,3,.6,4.1,1.7,1.6,2.7,1.6,4.8,0,.3,0,.6h-9.3c0,1.4.5,2.4,1.2,3.1s1.6,1.1,2.6,1.1,1.4-.2,2-.6,1-1.1,1.3-1.9v-.2ZM131.2,434.5h6.9c0-1-.4-1.8-.8-2.4-.7-.8-1.5-1.2-2.6-1.2s-1.8.3-2.4,1-1,1.5-1.1,2.6h0Z"/>
    <path class="st14" d="M151.1,440.3c-.8.7-1.5,1.1-2.3,1.4s-1.5.4-2.3.4c-1.4,0-2.4-.3-3.2-1s-1.1-1.5-1.1-2.6.1-1.2.4-1.7.6-.9,1.1-1.2,1-.5,1.5-.7c.4-.1,1-.2,1.9-.3,1.7-.2,3-.4,3.8-.7v-.6c0-.9-.2-1.5-.6-1.8-.5-.5-1.3-.7-2.4-.7s-1.7.2-2.2.5-.8,1-1,1.8l-2.1-.3c.2-.9.5-1.6.9-2.1s1.1-1,1.9-1.3,1.8-.4,2.8-.4,1.9.1,2.6.4,1.2.6,1.5.9.5.9.7,1.4c0,.4.1,1,.1,1.9v2.8c0,2,0,3.2.1,3.7s.3,1,.5,1.5h-2.2c-.2-.4-.4-.9-.4-1.5v.2ZM150.9,435.6c-.8.3-1.9.6-3.4.8-.9.1-1.5.3-1.8.4s-.6.4-.8.7-.3.6-.3,1c0,.6.2,1,.6,1.4s1,.6,1.9.6,1.5-.2,2.2-.5,1.1-.8,1.4-1.5c.2-.5.3-1.2.3-2.1v-.8h0Z"/>
    <path class="st14" d="M156.2,441.9v-17.2h2.1v17.2h-2.1Z"/>
    <path class="st14" d="M160.8,436.7v-2.1h6.5v2.1h-6.5Z"/>
    <path class="st14" d="M174.2,440l.3,1.9c-.6.1-1.1.2-1.6.2-.8,0-1.4-.1-1.8-.4s-.7-.6-.9-1-.3-1.2-.3-2.5v-7.2h-1.5v-1.6h1.5v-3.1l2.1-1.3v4.3h2.1v1.6h-2.1v7.3c0,.6,0,1,.1,1.2s.2.3.4.4.4.2.7.2h1Z"/>
    <path class="st14" d="M176.3,427.1v-2.4h2.1v2.4h-2.1ZM176.3,441.9v-12.4h2.1v12.4h-2.1Z"/>
    <path class="st14" d="M181.6,441.9v-12.4h1.9v1.7c.4-.6.9-1.1,1.6-1.5s1.4-.6,2.2-.6,1.7.2,2.3.6,1,.9,1.2,1.6c1-1.5,2.3-2.2,3.8-2.2s2.2.3,2.8,1,1,1.7,1,3.2v8.5h-2.1v-7.8c0-.8,0-1.5-.2-1.8s-.4-.7-.7-.9-.8-.3-1.3-.3c-.9,0-1.6.3-2.2.9s-.9,1.5-.9,2.8v7.2h-2.1v-8.1c0-.9-.2-1.6-.5-2.1s-.9-.7-1.7-.7-1.1.2-1.6.5-.9.8-1.1,1.4-.3,1.5-.3,2.6v6.5h-2.1,0Z"/>
    <path class="st14" d="M210.1,437.9l2.2.3c-.3,1.3-1,2.3-1.9,3s-2.1,1.1-3.6,1.1-3.3-.6-4.3-1.7-1.6-2.7-1.6-4.7.5-3.7,1.6-4.9,2.5-1.7,4.2-1.7,3,.6,4.1,1.7,1.6,2.7,1.6,4.8,0,.3,0,.6h-9.3c0,1.4.5,2.4,1.2,3.1s1.6,1.1,2.6,1.1,1.4-.2,2-.6,1-1.1,1.3-1.9v-.2ZM203.2,434.5h6.9c0-1-.4-1.8-.8-2.4-.7-.8-1.5-1.2-2.6-1.2s-1.8.3-2.4,1-1,1.5-1.1,2.6h0Z"/>
    <path class="st14" d="M221.6,446.6v-17.2h1.9v1.6c.5-.6,1-1.1,1.5-1.4s1.3-.5,2.1-.5,2,.3,2.8.8,1.4,1.3,1.8,2.3.6,2.1.6,3.3-.2,2.4-.7,3.4-1.1,1.8-2,2.3-1.8.8-2.7.8-1.3-.1-1.9-.4-1-.7-1.4-1.1v6.1h-2.1,0ZM223.5,435.7c0,1.6.3,2.8,1,3.6s1.4,1.1,2.4,1.1,1.7-.4,2.4-1.2,1-2,1-3.7-.3-2.8-1-3.6-1.4-1.2-2.3-1.2-1.7.4-2.4,1.3-1,2.1-1,3.7h0Z"/>
    <path class="st14" d="M235,427.1v-2.4h2.1v2.4h-2.1ZM235,441.9v-12.4h2.1v12.4h-2.1Z"/>
    <path class="st14" d="M238.9,441.9l4.5-6.5-4.2-6h2.6l1.9,2.9c.4.6.6,1,.9,1.4.3-.5.7-1,.9-1.4l2.1-2.9h2.5l-4.3,5.9,4.6,6.6h-2.6l-2.6-3.9-.7-1-3.3,4.9h-2.6.3Z"/>
    <path class="st14" d="M260.8,437.9l2.2.3c-.3,1.3-1,2.3-1.9,3s-2.1,1.1-3.6,1.1-3.3-.6-4.3-1.7-1.6-2.7-1.6-4.7.5-3.7,1.6-4.9,2.5-1.7,4.2-1.7,3,.6,4.1,1.7,1.6,2.7,1.6,4.8,0,.3,0,.6h-9.3c0,1.4.5,2.4,1.2,3.1s1.6,1.1,2.6,1.1,1.4-.2,2-.6,1-1.1,1.3-1.9v-.2ZM253.9,434.5h6.9c0-1-.4-1.8-.8-2.4-.7-.8-1.5-1.2-2.6-1.2s-1.8.3-2.4,1-1,1.5-1.1,2.6Z"/>
    <path class="st14" d="M265.6,441.9v-17.2h2.1v17.2h-2.1Z"/>
    <path class="st14" d="M286.2,437.9l2.2.3c-.3,1.3-1,2.3-1.9,3s-2.1,1.1-3.6,1.1-3.3-.6-4.3-1.7-1.6-2.7-1.6-4.7.5-3.7,1.6-4.9,2.5-1.7,4.2-1.7,3,.6,4.1,1.7,1.6,2.7,1.6,4.8,0,.3,0,.6h-9.3c0,1.4.5,2.4,1.2,3.1s1.6,1.1,2.6,1.1,1.4-.2,2-.6,1-1.1,1.3-1.9v-.2ZM279.2,434.5h6.9c0-1-.4-1.8-.8-2.4-.7-.8-1.5-1.2-2.6-1.2s-1.8.3-2.4,1-1,1.5-1.1,2.6Z"/>
    <path class="st14" d="M289.6,441.9l4.5-6.5-4.2-6h2.6l1.9,2.9c.4.6.6,1,.9,1.4.3-.5.7-1,.9-1.4l2.1-2.9h2.5l-4.3,5.9,4.6,6.6h-2.6l-2.6-3.9-.7-1-3.3,4.9h-2.6.3Z"/>
    <path class="st14" d="M303,446.6v-17.2h1.9v1.6c.5-.6,1-1.1,1.5-1.4s1.3-.5,2.1-.5,2,.3,2.8.8,1.4,1.3,1.8,2.3.6,2.1.6,3.3-.2,2.4-.7,3.4-1.1,1.8-2,2.3-1.8.8-2.7.8-1.3-.1-1.9-.4-1-.7-1.4-1.1v6.1h-2.1.1ZM304.9,435.7c0,1.6.3,2.8,1,3.6s1.4,1.1,2.4,1.1,1.7-.4,2.4-1.2,1-2,1-3.7-.3-2.8-1-3.6-1.4-1.2-2.3-1.2-1.7.4-2.4,1.3-1,2.1-1,3.7h-.1Z"/>
    <path class="st14" d="M316.3,441.9v-17.2h2.1v17.2h-2.1Z"/>
    <path class="st14" d="M320.9,435.7c0-2.3.6-4,1.9-5.1,1.1-.9,2.4-1.4,3.9-1.4s3.1.6,4.2,1.7,1.6,2.7,1.6,4.6-.2,2.9-.7,3.8-1.2,1.6-2.1,2.1-1.9.8-3,.8c-1.7,0-3.2-.6-4.2-1.7s-1.6-2.7-1.6-4.8h0ZM323,435.7c0,1.6.3,2.8,1,3.6s1.6,1.2,2.6,1.2,1.9-.4,2.6-1.2,1-2,1-3.6-.3-2.7-1-3.5-1.6-1.2-2.6-1.2-1.9.4-2.6,1.2-1,2-1,3.6h0Z"/>
    <path class="st14" d="M335,441.9v-12.4h1.9v1.9c.5-.9.9-1.5,1.3-1.7s.9-.4,1.4-.4,1.4.2,2.2.7l-.7,2c-.5-.3-1-.5-1.5-.5s-.9.1-1.2.4-.6.7-.8,1.2c-.2.8-.4,1.6-.4,2.5v6.5h-2.1v-.2Z"/>
    <path class="st14" d="M351.1,440.3c-.8.7-1.5,1.1-2.3,1.4s-1.5.4-2.3.4c-1.4,0-2.4-.3-3.2-1s-1.1-1.5-1.1-2.6.1-1.2.4-1.7.6-.9,1.1-1.2,1-.5,1.5-.7c.4-.1,1-.2,1.9-.3,1.7-.2,3-.4,3.8-.7v-.6c0-.9-.2-1.5-.6-1.8-.5-.5-1.3-.7-2.4-.7s-1.7.2-2.2.5-.8,1-1,1.8l-2.1-.3c.2-.9.5-1.6.9-2.1s1.1-1,1.9-1.3,1.8-.4,2.8-.4,1.9.1,2.6.4,1.2.6,1.5.9.5.9.7,1.4c0,.4.1,1,.1,1.9v2.8c0,2,0,3.2.1,3.7s.3,1,.5,1.5h-2.2c-.2-.4-.4-.9-.4-1.5v.2ZM350.9,435.6c-.8.3-1.9.6-3.4.8-.9.1-1.5.3-1.8.4s-.6.4-.8.7-.3.6-.3,1c0,.6.2,1,.6,1.4s1,.6,1.9.6,1.5-.2,2.2-.5,1.1-.8,1.4-1.5c.2-.5.3-1.2.3-2.1v-.8h-.1Z"/>
    <path class="st14" d="M361,440l.3,1.9c-.6.1-1.1.2-1.6.2-.8,0-1.4-.1-1.8-.4s-.7-.6-.9-1-.3-1.2-.3-2.5v-7.2h-1.5v-1.6h1.5v-3.1l2.1-1.3v4.3h2.1v1.6h-2.1v7.3c0,.6,0,1,.1,1.2s.2.3.4.4.4.2.7.2h1Z"/>
    <path class="st14" d="M363,427.1v-2.4h2.1v2.4h-2.1ZM363,441.9v-12.4h2.1v12.4h-2.1Z"/>
    <path class="st14" d="M367.6,435.7c0-2.3.6-4,1.9-5.1,1.1-.9,2.4-1.4,3.9-1.4s3.1.6,4.2,1.7,1.6,2.7,1.6,4.6-.2,2.9-.7,3.8-1.2,1.6-2.1,2.1-1.9.8-3,.8c-1.7,0-3.2-.6-4.2-1.7s-1.6-2.7-1.6-4.8h0ZM369.7,435.7c0,1.6.3,2.8,1,3.6s1.6,1.2,2.6,1.2,1.9-.4,2.6-1.2,1-2,1-3.6-.3-2.7-1-3.5-1.6-1.2-2.6-1.2-1.9.4-2.6,1.2-1,2-1,3.6h0Z"/>
    <path class="st14" d="M381.7,441.9v-12.4h1.9v1.8c.9-1.4,2.2-2.1,4-2.1s1.4.1,2.1.4,1.1.6,1.4,1.1.5,1,.7,1.6c0,.4.1,1.1.1,2.1v7.7h-2.1v-7.6c0-.9,0-1.5-.2-1.9s-.5-.8-.9-1-.9-.4-1.5-.4c-.9,0-1.7.3-2.3.9s-1,1.7-1,3.2v6.8h-2.1v-.2Z"/>
  </g>
  <g class="st10">
    <text class="st8" transform="translate(80 590)"><tspan x="0" y="0">Tswan.github.io/pixel-viz</tspan></text>
  </g>
  <g>
    <path class="st11" d="M783,234.7h134l-16.7-16.7h-134l16.7,16.7Z"/>
    <path class="st11" d="M783,368.7h134l-16.7-16.7h-134l16.7,16.7Z"/>
    <path class="st12" d="M917,234.7v134l-16.7-16.7v-134l16.7,16.7Z"/>
    <path class="st12" d="M783,234.7v134l-16.7-16.7v-134l16.7,16.7Z"/>
    <rect class="st2" x="781.3" y="248.3" width="120.4" height="120.4"/>
    <circle class="st28" cx="798.7" cy="338" r="6.7"/>
    <circle class="st23" cx="807.1" cy="298.6" r="6.7"/>
    <circle class="st15" cx="834" cy="325.4" r="6.7"/>
  </g>
</svg>